<?xml version="1.0" encoding="utf-8"?>
<!-- Generator: Adobe Illustrator 27.5.0, SVG Export Plug-In . SVG Version: 6.00 Build 0)  -->
<svg version="1.1" xmlns="http://www.w3.org/2000/svg" xmlns:xlink="http://www.w3.org/1999/xlink" x="0px" y="0px"
	 viewBox="0 0 500 500" style="enable-background:new 0 0 500 500;" xml:space="preserve">
<g id="Background_Complete">
	<g>
		<rect y="382.398" style="fill:#EBEBEB;" width="500" height="0.25"/>
		<rect x="416.779" y="398.494" style="fill:#EBEBEB;" width="33.122" height="0.25"/>
		<rect x="322.527" y="401.208" style="fill:#EBEBEB;" width="8.693" height="0.25"/>
		<rect x="396.586" y="389.208" style="fill:#EBEBEB;" width="19.192" height="0.25"/>
		<rect x="52.459" y="390.888" style="fill:#EBEBEB;" width="43.193" height="0.25"/>
		<rect x="104.556" y="390.888" style="fill:#EBEBEB;" width="6.333" height="0.25"/>
		<rect x="131.471" y="395.111" style="fill:#EBEBEB;" width="93.676" height="0.25"/>
		<path style="fill:#EBEBEB;" d="M237.014,337.8H43.915c-3.147,0-5.708-2.561-5.708-5.708V60.66c0-3.147,2.561-5.708,5.708-5.708
			h193.099c3.146,0,5.707,2.561,5.707,5.708v271.432C242.721,335.239,240.16,337.8,237.014,337.8z M43.915,55.203
			c-3.01,0-5.458,2.448-5.458,5.458v271.432c0,3.01,2.448,5.458,5.458,5.458h193.099c3.009,0,5.457-2.448,5.457-5.458V60.66
			c0-3.009-2.448-5.458-5.457-5.458H43.915z"/>
		<path style="fill:#EBEBEB;" d="M453.31,337.8H260.212c-3.147,0-5.707-2.561-5.707-5.708V60.66c0-3.147,2.561-5.708,5.707-5.708
			H453.31c3.148,0,5.708,2.561,5.708,5.708v271.432C459.019,335.239,456.458,337.8,453.31,337.8z M260.212,55.203
			c-3.009,0-5.457,2.448-5.457,5.458v271.432c0,3.01,2.448,5.458,5.457,5.458H453.31c3.01,0,5.458-2.448,5.458-5.458V60.66
			c0-3.009-2.448-5.458-5.458-5.458H260.212z"/>
	</g>
	<g>
		<g>
			
				<rect x="259.665" y="167.766" transform="matrix(-1 -1.224647e-16 1.224647e-16 -1 665.802 550.2788)" style="fill:#FAFAFA;" width="146.471" height="214.747"/>
			<g>
				
					<rect x="264.843" y="174.526" transform="matrix(-1 -1.224647e-16 1.224647e-16 -1 665.802 388.7128)" style="fill:#E6E6E6;" width="136.117" height="39.661"/>
				
					<rect x="393.227" y="180.946" transform="matrix(-1 -1.224647e-16 1.224647e-16 -1 794.1866 395.1334)" style="fill:#F0F0F0;" width="7.732" height="33.241"/>
				
					<rect x="355.838" y="180.946" transform="matrix(-1 -1.224647e-16 1.224647e-16 -1 719.4091 395.1334)" style="fill:#F0F0F0;" width="7.732" height="33.241"/>
				
					<rect x="310.514" y="180.531" transform="matrix(-0.9855 -0.1698 0.1698 -0.9855 590.7075 444.8345)" style="fill:#F0F0F0;" width="7.732" height="33.241"/>
				
					<rect x="383.646" y="185.327" transform="matrix(-1 -1.224647e-16 1.224647e-16 -1 775.0244 399.5139)" style="fill:#F0F0F0;" width="7.732" height="28.86"/>
				
					<rect x="365.873" y="185.327" transform="matrix(-1 -1.224647e-16 1.224647e-16 -1 739.4789 399.5139)" style="fill:#F0F0F0;" width="7.732" height="28.86"/>
				
					<rect x="321.013" y="185.327" transform="matrix(-1 -1.224647e-16 1.224647e-16 -1 649.7582 399.5139)" style="fill:#F0F0F0;" width="7.732" height="28.86"/>
				
					<rect x="342.46" y="184.832" transform="matrix(-0.9762 -0.2169 0.2169 -0.9762 641.1865 468.9001)" style="fill:#F0F0F0;" width="7.732" height="28.86"/>
				
					<rect x="376.96" y="179.296" transform="matrix(-1 -1.224647e-16 1.224647e-16 -1 757.7859 393.4831)" style="fill:#F0F0F0;" width="3.866" height="34.891"/>
				
					<rect x="330.968" y="179.296" transform="matrix(-1 -1.224647e-16 1.224647e-16 -1 665.802 393.4831)" style="fill:#F0F0F0;" width="3.866" height="34.891"/>
			</g>
			<g>
				<rect x="264.843" y="220.467" style="fill:#E6E6E6;" width="136.117" height="39.661"/>
				<rect x="264.843" y="226.888" style="fill:#F0F0F0;" width="7.732" height="33.241"/>
				<rect x="302.231" y="226.888" style="fill:#F0F0F0;" width="7.732" height="33.241"/>
				
					<rect x="347.556" y="226.473" transform="matrix(0.9855 -0.1698 0.1698 0.9855 -36.1804 63.2151)" style="fill:#F0F0F0;" width="7.732" height="33.241"/>
				<rect x="274.423" y="231.268" style="fill:#F0F0F0;" width="7.732" height="28.86"/>
				<rect x="292.196" y="231.268" style="fill:#F0F0F0;" width="7.733" height="28.86"/>
				<rect x="337.057" y="231.268" style="fill:#F0F0F0;" width="7.732" height="28.86"/>
				
					<rect x="315.609" y="230.773" transform="matrix(0.9762 -0.2169 0.2169 0.9762 -45.578 75.1292)" style="fill:#F0F0F0;" width="7.732" height="28.86"/>
				<rect x="284.976" y="225.238" style="fill:#F0F0F0;" width="3.866" height="34.891"/>
				<rect x="330.968" y="225.238" style="fill:#F0F0F0;" width="3.866" height="34.891"/>
				
					<rect x="393.227" y="226.888" transform="matrix(-1 -1.224647e-16 1.224647e-16 -1 794.1866 487.0165)" style="fill:#F0F0F0;" width="7.732" height="33.241"/>
				
					<rect x="383.646" y="231.268" transform="matrix(-1 -1.224647e-16 1.224647e-16 -1 775.0244 491.397)" style="fill:#F0F0F0;" width="7.732" height="28.86"/>
				
					<rect x="365.873" y="231.268" transform="matrix(-1 -1.224647e-16 1.224647e-16 -1 739.4789 491.397)" style="fill:#F0F0F0;" width="7.732" height="28.86"/>
				
					<rect x="376.96" y="225.238" transform="matrix(-1 -1.224647e-16 1.224647e-16 -1 757.7859 485.3662)" style="fill:#F0F0F0;" width="3.866" height="34.891"/>
			</g>
			<g>
				
					<rect x="264.843" y="266.409" transform="matrix(-1 -1.224647e-16 1.224647e-16 -1 665.802 572.4791)" style="fill:#E6E6E6;" width="136.117" height="39.661"/>
				<g>
					
						<rect x="315.101" y="272.83" transform="matrix(-1 -1.224647e-16 1.224647e-16 -1 637.9335 578.8999)" style="fill:#F0F0F0;" width="7.732" height="33.241"/>
					
						<rect x="269.776" y="272.414" transform="matrix(-0.9855 -0.1698 0.1698 -0.9855 494.2227 620.3436)" style="fill:#F0F0F0;" width="7.732" height="33.241"/>
					
						<rect x="342.908" y="277.21" transform="matrix(-1 -1.224647e-16 1.224647e-16 -1 693.5488 583.2803)" style="fill:#F0F0F0;" width="7.732" height="28.86"/>
					
						<rect x="325.135" y="277.21" transform="matrix(-1 -1.224647e-16 1.224647e-16 -1 658.0032 583.2803)" style="fill:#F0F0F0;" width="7.732" height="28.86"/>
					
						<rect x="280.275" y="277.21" transform="matrix(-1 -1.224647e-16 1.224647e-16 -1 568.2826 583.2803)" style="fill:#F0F0F0;" width="7.732" height="28.86"/>
					
						<rect x="301.722" y="276.715" transform="matrix(-0.9762 -0.2169 0.2169 -0.9762 540.7498 641.6434)" style="fill:#F0F0F0;" width="7.732" height="28.86"/>
					
						<rect x="336.222" y="271.179" transform="matrix(-1 -1.224647e-16 1.224647e-16 -1 676.3102 577.2495)" style="fill:#F0F0F0;" width="3.866" height="34.891"/>
					
						<rect x="290.23" y="271.179" transform="matrix(-1 -1.224647e-16 1.224647e-16 -1 584.3264 577.2495)" style="fill:#F0F0F0;" width="3.866" height="34.891"/>
					
						<rect x="358.734" y="272.414" transform="matrix(-0.9855 -0.1698 0.1698 -0.9855 670.8458 635.452)" style="fill:#F0F0F0;" width="7.732" height="33.241"/>
					
						<rect x="369.233" y="277.21" transform="matrix(-1 -1.224647e-16 1.224647e-16 -1 746.1987 583.2803)" style="fill:#F0F0F0;" width="7.732" height="28.86"/>
					
						<rect x="390.68" y="276.715" transform="matrix(-0.9762 -0.2169 0.2169 -0.9762 716.548 660.9391)" style="fill:#F0F0F0;" width="7.732" height="28.86"/>
					
						<rect x="379.188" y="271.179" transform="matrix(-1 -1.224647e-16 1.224647e-16 -1 762.2425 577.2495)" style="fill:#F0F0F0;" width="3.866" height="34.891"/>
				</g>
			</g>
			<rect x="406.137" y="167.766" style="fill:#F0F0F0;" width="25.269" height="215.31"/>
		</g>
		<g>
			
				<ellipse transform="matrix(0.9925 -0.1222 0.1222 0.9925 -12.5934 42.6283)" style="fill:#E0E0E0;" cx="341.284" cy="123.998" rx="17.208" ry="17.208"/>
			
				<ellipse transform="matrix(0.9951 -0.0985 0.0985 0.9951 -10.5575 34.2327)" style="fill:#F0F0F0;" cx="341.284" cy="123.998" rx="14.632" ry="14.631"/>
			
				<polyline style="fill:#F0F0F0;stroke:#E0E0E0;stroke-width:2;stroke-linecap:round;stroke-linejoin:round;stroke-miterlimit:10;" points="
				341.974,113.961 341.974,124.189 348.753,120.354 			"/>
		</g>
		<g>
			<path style="fill:#E6E6E6;" d="M193.023,144.535c0,0,1.344-8.863-5.12-14.546c-6.464-5.683-5.896-9.063-4.049-9.504
				c1.847-0.441,3.552,5.242,6.393,6.805c0,0,0.09-8.098-2.796-11.081c-2.886-2.984-4.401-10.669-1.655-10.804
				c2.746-0.135,3.03,4.565,3.599,7.898c0.568,3.333,3.628,8.021,3.628,8.021s0.597-7.246,2.463-10.229
				c1.865-2.984-3.107-9.803-1.189-12.786s5.328,2.699,5.044,9.093c-0.284,6.393-4.546,13.213-3.552,19.89
				c0,0,1.88-4.688,3.569-5.114c1.688-0.426,3.393-3.527,4.529-4.676c1.137-1.149,2.557,2.829,0,6.523
				c-2.557,3.694-9.092,13.576-8.098,21.564L193.023,144.535z"/>
			<path style="fill:#E6E6E6;" d="M189.158,140.503l-2.117,13.284c-0.654,4.102,2.516,7.817,6.67,7.817h2.258
				c4.154,0,7.324-3.715,6.67-7.817l-2.117-13.284H189.158z"/>
			<rect x="71.545" y="156.702" style="fill:#E0E0E0;" width="149.63" height="7.688"/>
			<rect x="78.432" y="128.363" style="fill:#EBEBEB;" width="6.592" height="28.339"/>
			<rect x="110.307" y="128.363" style="fill:#EBEBEB;" width="6.592" height="28.339"/>
			
				<rect x="148.947" y="128.009" transform="matrix(0.9855 -0.1698 0.1698 0.9855 -21.9358 27.9227)" style="fill:#EBEBEB;" width="6.592" height="28.338"/>
			<rect x="86.6" y="132.098" style="fill:#EBEBEB;" width="6.592" height="24.604"/>
			<rect x="101.752" y="132.098" style="fill:#EBEBEB;" width="6.592" height="24.604"/>
			<rect x="139.997" y="132.098" style="fill:#EBEBEB;" width="6.592" height="24.604"/>
			
				<rect x="121.712" y="131.675" transform="matrix(0.9762 -0.2169 0.2169 0.9762 -28.2529 30.5421)" style="fill:#EBEBEB;" width="6.592" height="24.604"/>
			<rect x="95.597" y="126.956" style="fill:#EBEBEB;" width="3.296" height="29.746"/>
			<rect x="134.806" y="126.956" style="fill:#EBEBEB;" width="3.296" height="29.746"/>
		</g>
		<g>
			
				<rect x="71.545" y="214.094" transform="matrix(-1 -1.224647e-16 1.224647e-16 -1 292.7199 435.876)" style="fill:#E0E0E0;" width="149.63" height="7.688"/>
			
				<rect x="207.696" y="185.755" transform="matrix(-1 -1.224647e-16 1.224647e-16 -1 421.9835 399.8496)" style="fill:#EBEBEB;" width="6.592" height="28.339"/>
			
				<rect x="175.821" y="185.755" transform="matrix(-1 -1.224647e-16 1.224647e-16 -1 358.2337 399.8496)" style="fill:#EBEBEB;" width="6.592" height="28.339"/>
			
				<rect x="137.181" y="185.402" transform="matrix(-0.9855 -0.1699 0.1699 -0.9855 245.0127 420.1028)" style="fill:#EBEBEB;" width="6.592" height="28.339"/>
			
				<rect x="199.528" y="189.49" transform="matrix(-1 -1.224647e-16 1.224647e-16 -1 405.6471 403.5841)" style="fill:#EBEBEB;" width="6.592" height="24.604"/>
			
				<rect x="184.376" y="189.49" transform="matrix(-1 -1.224647e-16 1.224647e-16 -1 375.3437 403.5841)" style="fill:#EBEBEB;" width="6.592" height="24.604"/>
			
				<rect x="146.131" y="189.49" transform="matrix(-1 -1.224647e-16 1.224647e-16 -1 298.8544 403.5841)" style="fill:#EBEBEB;" width="6.592" height="24.604"/>
			
				<rect x="164.415" y="189.068" transform="matrix(-0.9762 -0.2169 0.2169 -0.9762 287.7537 434.3225)" style="fill:#EBEBEB;" width="6.592" height="24.604"/>
			
				<rect x="193.827" y="184.348" transform="matrix(-1 -1.224647e-16 1.224647e-16 -1 390.9507 398.4426)" style="fill:#EBEBEB;" width="3.296" height="29.746"/>
			
				<rect x="154.618" y="184.348" transform="matrix(-1 -1.224647e-16 1.224647e-16 -1 312.5322 398.4426)" style="fill:#EBEBEB;" width="3.296" height="29.746"/>
			
				<rect x="85.903" y="191.665" transform="matrix(-1 -1.224647e-16 1.224647e-16 -1 203.9253 405.5046)" style="fill:#EBEBEB;" width="32.119" height="22.175"/>
		</g>
	</g>
</g>
<g id="Background_Simple" style="display:none;">
	<g style="display:inline;">
		<path style="fill:#407BFF;" d="M249.583,93.76c-72.083,32.432-6.647,90.234-48.268,121.714
			c-41.62,31.48-154.783-4.913-111.644,76.833c50.672,96.022,272.571,82.688,320.415-35.089
			C457.93,139.44,321.666,61.328,249.583,93.76z"/>
		<path style="opacity:0.9;fill:#FFFFFF;" d="M249.583,93.76c-72.083,32.432-6.647,90.234-48.268,121.714
			c-41.62,31.48-154.783-4.913-111.644,76.833c50.672,96.022,272.571,82.688,320.415-35.089
			C457.93,139.44,321.666,61.328,249.583,93.76z"/>
	</g>
</g>
<g id="Shadow_1_">
	<ellipse id="_x3C_Path_x3E__359_" style="fill:#F5F5F5;" cx="250" cy="416.238" rx="193.889" ry="11.323"/>
</g>
<g id="Plant">
	<g>
		<path style="fill:#263238;" d="M123.187,389.354c0,0,1.193-8.743,6.784-9.7c5.591-0.957,3.905-5.184,5.362-6.82
			c1.457-1.636,5.261,3.191,2.002,7.869c-3.259,4.677-0.595,3.207-2.002,7.556C133.926,392.607,122.675,396.601,123.187,389.354z"/>
		<path style="opacity:0.2;fill:#FFFFFF;enable-background:new    ;" d="M123.187,389.354c0,0,1.193-8.743,6.784-9.7
			c5.591-0.957,3.905-5.184,5.362-6.82c1.457-1.636,5.261,3.191,2.002,7.869c-3.259,4.677-0.595,3.207-2.002,7.556
			C133.926,392.607,122.675,396.601,123.187,389.354z"/>
		<path style="fill:none;stroke:#263238;stroke-linecap:round;stroke-linejoin:round;stroke-miterlimit:10;" d="M125.045,394.94
			c0,0,3.56-9.221,0.156-23.53c-3.404-14.309-12.278-19.258-6.234-35.788c6.043-16.53,13.498-28.569,8.407-39.547"/>
		<path style="fill:#263238;" d="M126.647,393.283c0,0,3.614-5.447-1.602-8.246c-5.216-2.8-6.262-0.546-9.489-2.559
			c-3.227-2.013-5.673-6.893-6.223-3.771c-0.55,3.122,3.177,4.903,1.859,6.33C109.874,386.465,119.965,395.738,126.647,393.283z"/>
		<g>
			<path style="fill:#263238;" d="M129.264,300.486c0,0,2.656-10.95-5.345-10.533C115.919,290.369,125.518,299.642,129.264,300.486z
				"/>
			<path style="fill:#263238;" d="M122.989,309.243c0,0-3.156-9.51-8.659-7.009C108.828,304.733,117.356,309.875,122.989,309.243z"
				/>
			<path style="fill:#263238;" d="M132.668,309.313c0,0-1.474-7.673,4.525-8.308C143.193,300.37,141.062,307.382,132.668,309.313z"
				/>
			<path style="fill:#263238;" d="M129.934,325.424c0,0,7.493-7.84,10.823-2.72C144.088,327.826,135.189,329.661,129.934,325.424z"
				/>
			<path style="fill:#263238;" d="M115.556,325.293c0,0-2.475-11.825-8.692-7.556C100.646,322.007,109.973,326.942,115.556,325.293z
				"/>
			<path style="fill:#263238;" d="M111.192,342.857c0,0,3.843-12.457-4.988-10.38C97.373,334.553,104.646,340.433,111.192,342.857z"
				/>
			<path style="fill:#263238;" d="M125.256,346.065c0,0,6.838-9.501,12.835-7.143S140.08,350.502,125.256,346.065z"/>
			<path style="fill:#263238;" d="M119.983,366.323c0,0-7.578-13.769-12.912-8.496C101.737,363.1,111.682,369.546,119.983,366.323z"
				/>
			<path style="fill:#263238;" d="M129.264,364.738c0,0-2.588-10.945,3.852-10.565C139.557,354.554,138.428,361.467,129.264,364.738
				z"/>
			<g style="opacity:0.2;enable-background:new    ;">
				<path style="fill:#FFFFFF;" d="M129.264,300.486c0,0,2.656-10.95-5.345-10.533C115.919,290.369,125.518,299.642,129.264,300.486
					z"/>
				<path style="fill:#FFFFFF;" d="M122.989,309.243c0,0-3.156-9.51-8.659-7.009C108.828,304.733,117.356,309.875,122.989,309.243z"
					/>
				<path style="fill:#FFFFFF;" d="M132.668,309.313c0,0-1.474-7.673,4.525-8.308C143.193,300.37,141.062,307.382,132.668,309.313z"
					/>
				<path style="fill:#FFFFFF;" d="M129.934,325.424c0,0,7.493-7.84,10.823-2.72C144.088,327.826,135.189,329.661,129.934,325.424z"
					/>
				<path style="fill:#FFFFFF;" d="M115.556,325.293c0,0-2.475-11.825-8.692-7.556C100.646,322.007,109.973,326.942,115.556,325.293
					z"/>
				<path style="fill:#FFFFFF;" d="M111.192,342.857c0,0,3.843-12.457-4.988-10.38C97.373,334.553,104.646,340.433,111.192,342.857z
					"/>
				<path style="fill:#FFFFFF;" d="M125.256,346.065c0,0,6.838-9.501,12.835-7.143S140.08,350.502,125.256,346.065z"/>
				<path style="fill:#FFFFFF;" d="M119.983,366.323c0,0-7.578-13.769-12.912-8.496C101.737,363.1,111.682,369.546,119.983,366.323z
					"/>
				<path style="fill:#FFFFFF;" d="M129.264,364.738c0,0-2.588-10.945,3.852-10.565
					C139.557,354.554,138.428,361.467,129.264,364.738z"/>
			</g>
		</g>
		<path style="fill:none;stroke:#263238;stroke-linecap:round;stroke-linejoin:round;stroke-miterlimit:10;" d="M134.466,306.615
			c0,0-3.025,5.378-7.513,8.385c0,0-3.588-5.747-6.129-7.006"/>
		<path style="fill:none;stroke:#263238;stroke-linecap:round;stroke-linejoin:round;stroke-miterlimit:10;" d="M136.072,324.213
			c0,0-8.755,0.418-15.248,6.198c0,0-4.359-6.198-9.632-8.759"/>
		<path style="fill:none;stroke:#263238;stroke-linecap:round;stroke-linejoin:round;stroke-miterlimit:10;" d="M108.101,337.352
			c0,0,4.539,9.566,9.633,13.02c0,0,9.458-6.546,16.731-7.273"/>
		<path style="fill:none;stroke:#263238;stroke-linecap:round;stroke-linejoin:round;stroke-miterlimit:10;" d="M132.668,357.827
			c0,0-4.134,9.961-7.623,12.345c0,0-3.803-4.546-11.374-6.172"/>
		<path style="fill:#263238;" d="M126.092,391.984c0,0,3.099-4.933,6.599-5.635c3.5-0.702,5.008-4.734,6.3-2.309
			C140.283,386.465,136.721,394.503,126.092,391.984z"/>
		<g>
			<polygon style="fill:#407BFF;" points="145.615,390.281 144.244,398.635 144.062,399.738 143.492,403.241 143.079,405.717 
				142.814,407.328 141.484,415.454 107.249,415.454 105.919,407.328 105.655,405.717 105.241,403.241 104.671,399.738 
				104.49,398.635 103.118,390.281 			"/>
		</g>
	</g>
</g>
<g id="Speech_bubble">
	<g>
		<g>
			<path style="fill:#407BFF;" d="M269.119,99.217h-28.728c-4.885,0-8.846,3.96-8.846,8.846v25.002c0,4.885,3.961,8.846,8.846,8.846
				h18.36l6.004,7.894v-7.894h4.365c4.885,0,8.846-3.96,8.846-8.846v-25.002C277.965,103.177,274.005,99.217,269.119,99.217z"/>
			<path style="opacity:0.5;fill:#FFFFFF;" d="M269.119,99.217h-28.728c-4.885,0-8.846,3.96-8.846,8.846v25.002
				c0,4.885,3.961,8.846,8.846,8.846h18.36l6.004,7.894v-7.894h4.365c4.885,0,8.846-3.96,8.846-8.846v-25.002
				C277.965,103.177,274.005,99.217,269.119,99.217z"/>
		</g>
		<g>
			<g style="enable-background:new    ;">
				<circle style="fill:#407BFF;" cx="254.755" cy="120.456" r="14.258"/>
			</g>
			<g>
				<path style="fill:#FFFFFF;" d="M253.258,126.825c-0.385,0-0.75-0.169-0.999-0.462l-5.594-6.591
					c-0.468-0.552-0.4-1.378,0.151-1.847c0.551-0.467,1.378-0.401,1.847,0.152l4.595,5.414l7.588-8.941
					c0.469-0.553,1.296-0.619,1.847-0.151c0.552,0.468,0.62,1.295,0.151,1.847l-8.587,10.118
					C254.008,126.656,253.643,126.825,253.258,126.825z"/>
			</g>
		</g>
	</g>
</g>
<g id="Character_2">
	<g>
		<g>
			<path style="fill:#D9877C;" d="M283.638,203.597c-1.37,5.818-3.005,11.391-4.989,17.012c-0.987,2.803-2.042,5.605-3.309,8.391
				c-1.303,2.802-2.603,5.569-4.815,8.476c-0.277,0.364-0.613,0.743-0.923,1.108c-0.363,0.379-0.73,0.769-1.142,1.13
				c-0.426,0.362-0.866,0.72-1.265,0.98c-0.417,0.299-0.812,0.535-1.205,0.766c-1.572,0.914-3.067,1.528-4.544,2.098
				c-2.946,1.126-5.843,1.904-8.737,2.611c-5.799,1.364-11.549,2.274-17.432,2.832c-1.413,0.134-2.666-0.902-2.8-2.315
				c-0.117-1.231,0.655-2.341,1.79-2.695l0.053-0.016c5.411-1.692,10.878-3.448,16.119-5.367c2.617-0.956,5.194-1.995,7.548-3.128
				c1.167-0.565,2.281-1.191,3.157-1.795c0.945-0.68,1.127-0.886,1.773-1.823c0.579-0.865,1.164-1.959,1.711-3.114
				c0.552-1.157,1.076-2.376,1.572-3.63c0.973-2.52,1.906-5.126,2.758-7.78c1.68-5.298,3.223-10.805,4.638-16.161l0.022-0.082
				c0.728-2.758,3.554-4.403,6.312-3.675C282.64,198.135,284.274,200.885,283.638,203.597z"/>
		</g>
		<g>
			<path style="fill:#D9877C;" d="M234.424,244.113l-8.137-0.168l3.725,8.222c0,0,7.269-0.289,6.963-4.027L234.424,244.113z"/>
			<polygon style="fill:#D9877C;" points="219.318,247.996 224.921,253.979 230.012,252.168 226.288,243.945 			"/>
		</g>
		<path style="fill:#407BFF;" d="M274.317,198.746c-4.7,3.669-11.602,31.913-11.602,31.913l-20.161,9.911l4.085,8.245
			c0,0,20.805-4.399,23.296-6.697c2.491-2.298,11.874-25.66,11.874-25.66L274.317,198.746z"/>
		<path style="opacity:0.7;fill:#FFFFFF;" d="M281.81,216.457c0,0-0.22,0.54-0.6,1.47c-0.64,1.58-1.75,4.28-3.04,7.33
			c-2.92,6.88-6.77,15.51-8.24,16.86c-2.49,2.3-23.29,6.7-23.29,6.7l-4.09-8.25l20.16-9.91c0,0,6.91-28.24,11.61-31.91
			L281.81,216.457z"/>
		<path style="opacity:0.1;" d="M281.21,217.927c-0.64,1.58-1.75,4.28-3.04,7.33c-1.95-8.69-0.88-17.69-0.88-17.69
			C278.78,209.517,280.161,213.557,281.21,217.927z"/>
		<path style="fill:#407BFF;" d="M338.554,260.883c0,0-22.399-2.396-46.88,11.916c0,0,1.854-5.234-0.481-15.518
			c-3.729-16.419-12.407-41.416-13.129-46.149c-1.175-7.698,39.507-14.381,39.507-14.381s5.934,21.874,11.475,34.637
			C334.585,244.151,339.311,258.025,338.554,260.883z"/>
		<path style="opacity:0.5;fill:#FFFFFF;" d="M338.554,260.883c0,0-22.399-2.396-46.88,11.916c0,0,1.854-5.234-0.481-15.518
			c-3.729-16.419-12.407-41.416-13.129-46.149c-1.175-7.698,39.507-14.381,39.507-14.381s5.934,21.874,11.475,34.637
			C334.585,244.151,339.311,258.025,338.554,260.883z"/>
		<polygon style="fill:#B55B52;" points="278.256,408.184 285.523,410.24 287.252,398.93 288.183,392.881 280.916,390.824 
			279.678,398.93 		"/>
		<polygon style="fill:#B55B52;" points="320.038,408.774 327.53,409.766 327.601,398.927 327.652,392.192 320.149,391.21 
			320.098,398.927 		"/>
		<polygon style="opacity:0.2;" points="320.149,391.21 320.098,398.927 327.601,398.927 327.652,392.192 		"/>
		<polygon style="opacity:0.2;" points="279.678,398.93 287.252,398.93 288.183,392.881 280.916,390.824 		"/>
		<g>
			<path style="fill:#263238;" d="M278.345,407.05l8.253-0.223c0.309-0.008,0.584,0.198,0.662,0.496l1.734,6.646
				c0.18,0.689-0.325,1.36-1.039,1.368c-2.979,0.03-7.287-0.027-11.029,0.074c-4.375,0.118-7.157-0.096-12.288,0.042
				c-3.103,0.084-4.076-3.015-2.788-3.333c5.865-1.447,9.7-1.161,14.695-4.435C277.088,407.329,277.693,407.067,278.345,407.05z"/>
			<path style="fill:#407BFF;" d="M277.638,408.109c-0.008,0.003-0.015,0.005-0.023,0.007c-1.208,0.275-3.364,0.629-4.219-0.079
				c-0.257-0.214-0.381-0.502-0.367-0.858c0.009-0.212,0.105-0.379,0.278-0.482c0.902-0.542,3.993,0.918,4.342,1.085
				c0.069,0.033,0.11,0.105,0.102,0.181C277.745,408.03,277.7,408.086,277.638,408.109z M273.557,406.974
				c-0.023,0.009-0.045,0.018-0.064,0.03c-0.07,0.042-0.102,0.1-0.106,0.193c-0.01,0.242,0.068,0.427,0.236,0.567
				c0.48,0.397,1.726,0.436,3.385,0.115C275.79,407.342,274.12,406.762,273.557,406.974z"/>
			<path style="fill:#407BFF;" d="M277.638,408.109c-0.042,0.016-0.089,0.016-0.132-0.002c-0.927-0.383-2.792-1.961-2.685-2.815
				c0.026-0.201,0.159-0.452,0.649-0.516c0.364-0.047,0.702,0.047,1.004,0.279c0.99,0.76,1.266,2.78,1.278,2.866
				c0.008,0.063-0.018,0.125-0.068,0.164C277.669,408.095,277.654,408.103,277.638,408.109z M275.338,405.171
				c-0.146,0.055-0.157,0.136-0.161,0.168c-0.064,0.513,1.21,1.758,2.161,2.289c-0.118-0.589-0.431-1.794-1.081-2.293
				c-0.227-0.174-0.468-0.241-0.737-0.206C275.442,405.139,275.383,405.154,275.338,405.171z"/>
		</g>
		<g>
			<path style="fill:#263238;" d="M320.337,407.047l8.253-0.223c0.309-0.008,0.584,0.198,0.662,0.496l1.734,6.646
				c0.18,0.689-0.325,1.36-1.039,1.368c-2.979,0.03-7.287-0.027-11.029,0.074c-4.375,0.118-7.157-0.096-12.288,0.042
				c-3.103,0.084-4.076-3.015-2.788-3.333c5.866-1.447,9.7-1.161,14.696-4.435C319.081,407.326,319.685,407.064,320.337,407.047z"/>
			<path style="fill:#407BFF;" d="M319.631,408.106c-0.008,0.003-0.015,0.005-0.023,0.007c-1.208,0.275-3.364,0.629-4.219-0.079
				c-0.258-0.214-0.381-0.502-0.367-0.858c0.009-0.212,0.105-0.379,0.279-0.482c0.902-0.542,3.993,0.918,4.342,1.085
				c0.069,0.033,0.109,0.105,0.102,0.18C319.737,408.026,319.693,408.082,319.631,408.106z M315.55,406.97
				c-0.023,0.009-0.045,0.018-0.064,0.03c-0.07,0.042-0.102,0.1-0.106,0.193c-0.01,0.242,0.068,0.427,0.236,0.567
				c0.48,0.397,1.726,0.436,3.385,0.114C317.782,407.339,316.113,406.759,315.55,406.97z"/>
			<path style="fill:#407BFF;" d="M319.631,408.106c-0.042,0.016-0.089,0.016-0.132-0.002c-0.927-0.383-2.792-1.961-2.685-2.815
				c0.025-0.201,0.159-0.452,0.649-0.516c0.364-0.047,0.702,0.047,1.004,0.279c0.99,0.76,1.267,2.78,1.278,2.866
				c0.008,0.063-0.018,0.125-0.068,0.164C319.662,408.092,319.647,408.1,319.631,408.106z M317.33,405.168
				c-0.147,0.055-0.157,0.136-0.161,0.168c-0.064,0.513,1.21,1.758,2.161,2.289c-0.118-0.589-0.432-1.794-1.081-2.292
				c-0.227-0.174-0.468-0.241-0.737-0.206C317.435,405.136,317.376,405.151,317.33,405.168z"/>
		</g>
		<path style="fill:#263238;" d="M335.482,244.037c3.97,17.212-2.831,152.578-2.831,152.578l-13.165,0.001l-5.637-112.812
			l-20.724,112.814l-14.07-1.023c9.191-87.39,17.318-139.564,17.318-139.564l-0.02-6.593L335.482,244.037z"/>
		<g>
			<path style="fill:#407BFF;" d="M313.875,183.46c1.359,8.334,3.53,16.465,5.948,23.949c1.772,5.474,3.687,10.596,5.534,15.193
				c4.325,10.774,8.281,18.69,9.228,21.55c0,0-25.754,10.446-38.215,10.359c-18.574-34.657-20.713-54.326-20.713-54.326l7.645-6.931
				c0,0,1.208-0.623,1.831-0.92c4.024-1.923,10.93-4.311,15.745-5.84c1.013-0.32,2.049-0.619,3.063-0.895
				C309.106,184.206,313.875,183.46,313.875,183.46z"/>
		</g>
		<g>
			<path style="fill:#B55B52;" d="M299.491,186.611c0,0-7.232,8.857-9.877,9.412c-1.853,0.389-5.202-2.045-5.202-2.045
				c1.196-0.988,1.963-1.976,2.376-2.948c1.273-2.913-0.461-5.727-2.568-8.185l5.318-12.385c0.584,2.114,1.5,4.878,2.705,7.526
				c0.002,0.01,0.002,0.01,0.002,0.01C294.036,181.959,296.494,185.671,299.491,186.611z"/>
			<path style="opacity:0.2;" d="M292.244,177.985c0.002,0.01,0.002,0.01,0.002,0.01c0.234,4.844-0.611,10.682-5.457,13.035
				c1.273-2.913-0.461-5.727-2.568-8.185l5.318-12.385C290.122,172.573,291.039,175.337,292.244,177.985z"/>
		</g>
		<g>
			<path style="fill:#263238;" d="M266.677,171.064c0.329,2.96,3.133,8.101,5.998,4.763
				C275.54,172.49,266.112,165.977,266.677,171.064z"/>
			<path style="fill:#B55B52;" d="M286.953,166.313c3.346,6.504,5.638,10.143,4.361,15.223c-1.921,7.641-11.437,9.306-16.674,3.917
				c-4.714-4.851-9.395-14.671-4.691-20.77C274.583,158.675,283.606,159.81,286.953,166.313z"/>
			<path style="fill:#263238;" d="M280.667,164.748l-3.293-7.463c0,0,7.683-4.095,9.124,0.126
				c5.362,0.241,7.975,10.742,3.547,16.705c-4.382-1.163-8.438-10.308-8.438-10.308
				C281.325,164.118,281.004,164.432,280.667,164.748z"/>
			<path style="fill:#B55B52;" d="M292.486,170.103c0.459,1.914-0.016,3.856-0.892,5.215c-1.319,2.044-3.609,1.257-4.607-0.825
				c-0.899-1.874-1.295-5.196,0.686-6.519C289.624,166.671,291.961,167.915,292.486,170.103z"/>
			<path style="fill:#263238;" d="M278.405,173.647c0.304,0.511,0.278,1.084-0.059,1.28c-0.336,0.196-0.856-0.06-1.16-0.571
				c-0.304-0.511-0.278-1.084,0.059-1.28C277.581,172.88,278.101,173.136,278.405,173.647z"/>
			<path style="fill:#263238;" d="M272.585,177.032c0.304,0.511,0.278,1.084-0.059,1.28c-0.337,0.196-0.856-0.06-1.16-0.571
				c-0.304-0.511-0.278-1.084,0.059-1.28C271.761,176.265,272.281,176.521,272.585,177.032z"/>
			<path style="fill:#A02724;" d="M274.586,176.21c0,0,0.489,3.537,0.008,5.672c1.374,0.276,2.692-1.012,2.692-1.012L274.586,176.21
				z"/>
			<path style="fill:#263238;" d="M279.089,170.737c-0.096,0.075-0.229,0.097-0.351,0.047c-1.449-0.594-2.523,0.117-2.533,0.124
				c-0.16,0.109-0.379,0.068-0.489-0.09c-0.11-0.158-0.069-0.375,0.09-0.484c0.056-0.039,1.401-0.93,3.199-0.193
				c0.18,0.074,0.265,0.277,0.191,0.455C279.173,170.654,279.135,170.702,279.089,170.737z"/>
			<path style="fill:#263238;" d="M268.894,176.503c-0.053,0.041-0.117,0.067-0.189,0.073c-0.193,0.015-0.363-0.128-0.379-0.32
				c-0.158-1.922,1.116-2.902,1.168-2.954c0.154-0.117,0.374-0.088,0.493,0.064c0.118,0.152,0.091,0.368-0.06,0.486
				c-0.055,0.039-1.027,0.807-0.9,2.349C269.037,176.323,268.984,176.434,268.894,176.503z"/>
			
				<path style="fill:none;stroke:#263238;stroke-width:0.5751;stroke-linecap:round;stroke-linejoin:round;stroke-miterlimit:10;" d="
				M279.922,183.605c0,0,2.331-1.48,2.63-3.646"/>
			<path style="fill:#263238;" d="M282.786,165.202c0,0-1.793,1.854-3.573,0.384c0,0-3.004,1.947-3.669-0.527
				c0,0-1.002,2.435-2.882,1.512c0,0-1.152,2.894-2.942,1.913c0,0-0.592,2.715-2.009,2.038l-0.55,2.512c0,0-2.831,0.044-1.91-2.636
				c0,0-2.284-1.563-1.254-3.655c0,0-1.296-3.383,1.367-3.856c0,0-0.57-2.903,2.861-2.439c0,0-0.127-2.826,3.17-2.217
				c0,0,0.569-3.854,4.308-1.945c0,0,2.071-3.255,4.426-1.039c0,0,1.103-1.06,3.146-1.046c2.043,0.014,2.852,2.223,2.852,2.223
				s1.152-0.721,3.015,0.323c1.862,1.044,1.578,3.668,1.578,3.668s3.298,1.253,1.563,3.676
				C290.546,166.513,282.786,165.202,282.786,165.202z"/>
		</g>
		<g>
			<g>
				<path style="fill:#407BFF;" d="M289.612,196.025c0,0,2.564,1.469,5.424,2.806c2.5-2.604,8.174-9.212,6.491-12.887
					c-0.808-0.959-3.945-0.644-3.945-0.644S295.866,190.498,289.612,196.025z"/>
			</g>
			<g>
				<path style="fill:#407BFF;" d="M289.612,196.025c0,0-1.729,2.678-2.449,5.564c-2.746-0.663-4.095-8.127-3.547-9.198
					c1.397-1.686,3.497-2.359,3.497-2.359S286.651,193.806,289.612,196.025z"/>
			</g>
			<g style="opacity:0.2;">
				<g>
					<path style="fill:#FFFFFF;" d="M289.612,196.025c0,0,2.564,1.469,5.424,2.806c2.5-2.604,8.174-9.212,6.491-12.887
						c-0.808-0.959-3.945-0.644-3.945-0.644S295.866,190.498,289.612,196.025z"/>
				</g>
				<g>
					<path style="fill:#FFFFFF;" d="M289.612,196.025c0,0-1.729,2.678-2.449,5.564c-2.746-0.663-4.095-8.127-3.547-9.198
						c1.397-1.686,3.497-2.359,3.497-2.359S286.651,193.806,289.612,196.025z"/>
				</g>
			</g>
		</g>
		<g>
			<path style="fill:#407BFF;" d="M301.527,185.945c0,0,3.212,12.938,9.992,27.403c0.017,0.028,0.019,0.038,0.019,0.038
				c4.062,8.668,10.404,21.569,19.26,34.572c3.37,4.949,4.928,19.904,4.928,19.904s5.193-3.293,5.393-4.9
				c0.123-0.974-1.247-11.156-5.746-19.198c-2.874-5.137-4.825-10.874-6.746-16.133c-4.916-13.483-12.97-44.818-12.97-44.818
				s-3.651,0.128-9.616,1.742C304.659,184.937,303.144,185.387,301.527,185.945z"/>
			<path style="opacity:0.7;fill:#FFFFFF;" d="M341.121,262.967c-0.2,1.6-5.39,4.89-5.39,4.89s-1.56-14.95-4.93-19.9
				c-4.5-6.6-8.35-13.18-11.58-19.19c-2.02-3.75-3.79-7.28-5.33-10.45c-0.86-1.76-1.64-3.41-2.35-4.93c0,0,0-0.01-0.02-0.04
				c-6.78-14.46-9.99-27.4-9.99-27.4c1.61-0.56,3.13-1.01,4.51-1.39c5.97-1.62,9.62-1.74,9.62-1.74s1.15,4.49,2.86,10.8
				c1.1,4.12,2.45,9.02,3.86,13.95c0.78,2.74,1.58,5.49,2.38,8.12c1.36,4.55,2.7,8.75,3.87,11.94c0.52,1.42,1.04,2.87,1.58,4.34
				c1.46,3.97,3.06,8.05,5.16,11.8C339.871,251.807,341.24,261.987,341.121,262.967z"/>
			<path style="opacity:0.4;fill:#FFFFFF;" d="M301.527,185.945c0,0,3.212,12.938,9.992,27.403c0.017,0.028,0.019,0.038,0.019,0.038
				l0.583-21.264l-5.449,0.673l4.641-4.32l-5.271-3.917C304.659,184.937,303.144,185.387,301.527,185.945z"/>
		</g>
		<g>
			<path style="fill:#407BFF;" d="M290.892,275.121l1.588,0.686c0,0,0.853-10.589-0.537-19.712
				c-1.249-8.196-4.408-18.089-6.57-29.353c-0.261-1.368-0.501-2.688-0.728-3.948c-4.263-24.07-1.527-29.226-1.344-29.539
				l-3.196,1.945l-5.788,3.547c1.67,13.035,10.808,39.518,15.534,57.945C291.001,261.176,290.892,275.121,290.892,275.121z"/>
			<path style="opacity:0.7;fill:#FFFFFF;" d="M290.892,275.121l1.588,0.686c0,0,0.853-10.589-0.537-19.712
				c-1.249-8.196-4.408-18.089-6.57-29.353c-0.261-1.368-0.501-2.688-0.728-3.948c-4.263-24.07-1.527-29.226-1.344-29.539
				l-3.196,1.945l-5.788,3.547c1.67,13.035,10.808,39.518,15.534,57.945C291.001,261.176,290.892,275.121,290.892,275.121z"/>
			<path style="opacity:0.4;fill:#FFFFFF;" d="M281.434,202.432l-3.408,3.355c0,0,3.613,11.434,6.619,17.006
				c-4.263-24.07-1.527-29.226-1.344-29.539l-3.196,1.945c-1.085,1.635-2.698,4.382-3.352,7.159L281.434,202.432z"/>
		</g>
		<path style="opacity:0.2;" d="M309.436,307.811l4.41-24.003l-0.851-12.702C312.995,271.106,306.948,293.133,309.436,307.811z"/>
		<polygon style="fill:#407BFF;" points="294.113,397.736 277.639,397.737 278.255,393.475 294.729,393.474 		"/>
		<rect x="318.277" y="393.471" style="fill:#407BFF;" width="15.865" height="4.263"/>
		<g>
			<path style="fill:#D9877C;" d="M305.764,218.652l-8.137-0.168l3.725,8.223c0,0,7.269-0.289,6.963-4.027L305.764,218.652z"/>
			<polygon style="fill:#D9877C;" points="290.658,222.534 296.261,228.517 301.352,226.706 297.628,218.484 			"/>
		</g>
		<path style="opacity:0.1;" d="M322.38,207.567c-5.17-6.89-5.27-14.31-5.27-14.31c0.47,0.09,0.94,0.21,1.41,0.36
			C319.621,197.737,320.97,202.637,322.38,207.567z"/>
		<path style="opacity:0.1;" d="M330.21,231.967c-4.7-0.79-8.69-2.24-10.99-3.2c-2.02-3.75-3.79-7.28-5.33-10.45
			c4.3-0.58,8.81-1.95,10.87-2.63c1.36,4.55,2.7,8.75,3.87,11.94C329.15,229.047,329.67,230.497,330.21,231.967z"/>
		<g>
			<path style="fill:#D9877C;" d="M327.946,189.223c3.202,4.804,6.12,9.663,8.901,14.738c1.403,2.529,2.73,5.11,3.968,7.853
				c0.621,1.382,1.218,2.782,1.746,4.411c0.262,0.83,0.525,1.676,0.706,2.91c0.062,0.662,0.205,1.364-0.079,2.787
				c-0.226,1.024-0.827,2.015-1.326,2.53c-0.128,0.14-0.261,0.276-0.398,0.407c-0.123,0.112-0.23,0.197-0.349,0.293l-0.356,0.269
				l-0.303,0.193c-0.815,0.491-1.438,0.707-1.979,0.878c-0.556,0.175-1.035,0.28-1.5,0.373c-0.919,0.172-1.749,0.258-2.556,0.323
				c-1.608,0.123-3.112,0.137-4.605,0.123c-2.974-0.048-5.857-0.255-8.725-0.524c-5.734-0.544-11.35-1.396-16.984-2.498
				c-1.392-0.272-2.3-1.622-2.028-3.014c0.24-1.226,1.315-2.076,2.519-2.076l0.035,0c5.587-0.002,11.22-0.019,16.752-0.115
				c2.765-0.058,5.521-0.152,8.184-0.355c1.324-0.099,2.638-0.228,3.831-0.425c0.593-0.097,1.159-0.216,1.618-0.343
				c0.221-0.062,0.427-0.127,0.539-0.18c0.129-0.046,0.161-0.106-0.056,0.013l-0.079,0.052c-0.052,0.032-0.102,0.066-0.15,0.104
				l-0.145,0.126c-0.077,0.066-0.15,0.137-0.218,0.213c-0.252,0.261-0.695,0.927-0.827,1.613c-0.145,0.729-0.066,0.717-0.105,0.685
				c-0.047-0.159-0.208-0.663-0.417-1.16c-0.424-1.025-0.993-2.196-1.589-3.355c-1.217-2.333-2.597-4.701-3.977-7.074
				c-1.392-2.371-2.86-4.722-4.322-7.081l-4.383-7.058l-0.029-0.046c-1.505-2.423-0.76-5.608,1.663-7.113
				C323.297,186.226,326.405,186.918,327.946,189.223z"/>
		</g>
		<path style="fill:#407BFF;" d="M315.658,182.814c7.194-0.314,12.123,5.563,20.087,15.932
			c12.766,16.619,14.065,25.065,10.969,27.653c-5.096,4.26-25.46,2.919-25.46,2.919l-3.636-11.772c0,0,11.947-1.416,12-2.246
			c0.053-0.83-9.957-14.446-9.957-14.446s-3.15-3.882-4.328-9.824C314.426,186.458,315.658,182.814,315.658,182.814z"/>
		<path style="opacity:0.7;fill:#FFFFFF;" d="M315.658,182.814c7.194-0.314,12.123,5.563,20.087,15.932
			c12.766,16.619,14.065,25.065,10.969,27.653c-5.096,4.26-25.46,2.919-25.46,2.919l-3.636-11.772c0,0,11.947-1.416,12-2.246
			c0.053-0.83-9.957-14.446-9.957-14.446s-3.15-3.882-4.328-9.824C314.426,186.458,315.658,182.814,315.658,182.814z"/>
	</g>
</g>
<g id="Character_1">
	<g>
		<polygon style="fill:#263238;" points="149.15,265.101 153.962,265.101 167.359,335.541 162.547,335.541 		"/>
		<polygon style="fill:#263238;" points="167.013,265.101 171.824,265.101 185.221,335.541 180.41,335.541 		"/>
		<polygon style="fill:#263238;" points="184.875,265.101 189.687,265.101 203.083,335.541 198.272,335.541 		"/>
		<polygon style="opacity:0.4;fill:#FFFFFF;enable-background:new    ;" points="149.15,265.101 153.962,265.101 167.359,335.541 
			162.547,335.541 		"/>
		<polygon style="opacity:0.4;fill:#FFFFFF;enable-background:new    ;" points="167.013,265.101 171.824,265.101 185.221,335.541 
			180.41,335.541 		"/>
		<polygon style="opacity:0.4;fill:#FFFFFF;enable-background:new    ;" points="184.875,265.101 189.687,265.101 203.083,335.541 
			198.272,335.541 		"/>
		<path style="fill:#263238;" d="M157.467,273.235c7.745-4.2,18.499-4.2,28.776,0c5.195,2.04,11.34,2.62,14.061-0.32c0,0,0,0,0,0
			c4.633-4.325-3.498-17.138-19.104-21.196c-11.169-2.868-22.225-2.868-31.664,0c-13.159,4.057-13.564,16.871-6.324,21.196
			c0,0,0,0,0,0C147.708,275.855,153.497,275.275,157.467,273.235z"/>
		<path style="opacity:0.4;fill:#FFFFFF;" d="M157.467,273.235c7.745-4.2,18.499-4.2,28.776,0c5.195,2.04,11.34,2.62,14.061-0.32
			c0,0,0,0,0,0c4.633-4.325-3.498-17.138-19.104-21.196c-11.169-2.868-22.225-2.868-31.664,0
			c-13.159,4.057-13.564,16.871-6.324,21.196c0,0,0,0,0,0C147.708,275.855,153.497,275.275,157.467,273.235z"/>
		<path style="fill:#263238;" d="M163.167,329.695h64.71c2.761,0,5,2.239,5,5v6.692h-74.71v-6.692
			C158.167,331.934,160.405,329.695,163.167,329.695z"/>
		<path style="opacity:0.4;fill:#FFFFFF;" d="M163.167,329.695h64.71c2.761,0,5,2.239,5,5v6.692h-74.71v-6.692
			C158.167,331.934,160.405,329.695,163.167,329.695z"/>
		<polygon style="fill:#263238;" points="192.299,415.454 198.749,415.454 200.364,352.937 200.766,337.363 190.272,337.363 
			190.674,352.937 		"/>
		<polygon style="opacity:0.4;fill:#FFFFFF;enable-background:new    ;" points="192.299,415.454 198.749,415.454 200.364,352.937 
			200.766,337.363 190.272,337.363 190.674,352.937 		"/>
		<polygon style="opacity:0.2;enable-background:new    ;" points="190.272,337.363 190.674,353.367 200.364,353.367 
			200.766,337.363 		"/>
		<g>
			<g>
				<polygon style="fill:#263238;" points="165.071,415.454 172.174,338.464 163.053,338.464 157.98,415.454 				"/>
				<polygon style="opacity:0.4;fill:#FFFFFF;enable-background:new    ;" points="165.085,415.454 171.467,346.065 
					172.171,338.364 163.049,338.364 162.547,346.065 157.988,415.454 				"/>
				<polygon style="opacity:0.2;enable-background:new    ;" points="172.171,338.364 171.467,346.366 162.547,346.366 
					163.049,338.364 				"/>
			</g>
			<g>
				<polygon style="fill:#263238;" points="233.063,415.454 227.99,338.464 218.869,338.464 225.972,415.454 				"/>
				<polygon style="opacity:0.4;fill:#FFFFFF;enable-background:new    ;" points="225.958,415.454 233.055,415.454 
					228.496,346.065 227.994,338.364 218.873,338.364 219.576,346.065 				"/>
				<polygon style="opacity:0.2;enable-background:new    ;" points="218.872,338.364 219.576,346.366 228.496,346.366 
					227.993,338.364 				"/>
			</g>
		</g>
		<g>
			<path style="fill:#263238;" d="M156.598,335.541h77.846c1.111,0,2.011,0.901,2.011,2.011v1.823c0,1.111-0.9,2.011-2.011,2.011
				h-77.846c-1.111,0-2.011-0.901-2.011-2.011v-1.823C154.587,336.442,155.488,335.541,156.598,335.541z"/>
			<path style="opacity:0.6;fill:#FFFFFF;enable-background:new    ;" d="M156.598,335.541h77.846c1.111,0,2.011,0.901,2.011,2.011
				v1.823c0,1.111-0.9,2.011-2.011,2.011h-77.846c-1.111,0-2.011-0.901-2.011-2.011v-1.823
				C154.587,336.442,155.488,335.541,156.598,335.541z"/>
		</g>
	</g>
	<g id="_x3C_Group_x3E__20_">
		<g>
			<path style="fill:#EBB376;" d="M260.53,281.721l6.541-3.912l0.978,9.595c0,0-6.298,2.084-7.755-1.16L260.53,281.721z"/>
			<polygon style="fill:#EBB376;" points="273.272,278.579 273.712,286.548 268.049,287.404 267.071,277.809 			"/>
		</g>
		<path style="fill:#407BFF;" d="M255.105,278.48c-2.54-0.57-5.07-1.16-7.58-1.79c-2.5-0.6-4.99-1.23-7.39-1.9
			c-1.2-0.33-2.38-0.68-3.46-1.05c-0.47-0.16-0.92-0.33-1.32-0.49l-0.08-0.18c-0.09-0.19-0.18-0.45-0.28-0.69
			c-0.39-0.98-0.77-2.12-1.14-3.28c-0.74-2.33-1.42-4.79-2.12-7.24c-1.36-4.92-2.98-14.16-4.49-15.28l-13.01,3.78
			c1,3.9,2.09,7.72,3.28,11.53c0.41,1.3,0.83,2.6,1.26,3.91c0.83,2.58,1.74,5.13,2.79,7.75c0.13,0.33,0.27,0.65,0.4,0.98
			c0.41,0.99,0.84,1.99,1.35,3.06c0.18,0.36,0.35,0.71,0.56,1.11l0.31,0.57l0.38,0.65c0.11,0.19,0.29,0.46,0.46,0.72l0.27,0.38
			c0.07,0.1,0.25,0.33,0.38,0.48l0.44,0.51l0.12,0.13l0.2,0.2c0.15,0.14,0.29,0.27,0.44,0.4c0.25,0.19,0.46,0.35,0.69,0.51
			l0.55,0.34c1.3,0.72,2.11,0.96,2.93,1.25c0.8,0.26,1.55,0.45,2.27,0.63c1.45,0.35,2.82,0.62,4.19,0.88
			c2.73,0.49,5.4,0.86,8.06,1.19c2.67,0.31,5.33,0.59,7.98,0.83c2.67,0.21,5.3,0.43,8,0.54l1.17-8.67L255.105,278.48z"/>
		<path style="opacity:0.2;enable-background:new    ;" d="M221.965,274.53c-0.13-0.33-0.27-0.65-0.4-0.98
			c-1.05-2.62-1.96-5.17-2.79-7.75c-0.43-1.31-0.85-2.61-1.26-3.91c0.31-1.87,0.75-3.85,1.36-5.89
			C218.875,256,222.495,264.6,221.965,274.53z"/>
		<g>
			<path style="fill:#407BFF;" d="M241.463,404.778c0.01,0.022,0.005,0.048,0.022,0.066c0.021,0.012,0.047,0.013,0.072,0.011
				c0.65,0.385,1.34,0.7,2.059,0.936c0.523,0.227,1.113,0.249,1.651,0.062c0.36-0.195,0.577-0.58,0.554-0.989
				c0.03-0.257-0.072-0.51-0.273-0.672c-0.474-0.369-1.486-0.285-2.38-0.116c0.66-0.514,1.243-1.166,1.291-1.696
				c0.028-0.348-0.166-0.671-0.497-0.783c-0.285-0.125-0.573-0.118-0.854,0.019c-1.043,0.544-1.495,2.912-1.528,3.039
				c0,0.001,0.15,0.004,0.15,0.005c0,0.001,0,0.002,0,0.003c0,0.001-0.153,0.004-0.153,0.005c-0.001,0.009-0.143,0.012-0.143,0.021
				C241.436,404.721,241.444,404.751,241.463,404.778z M242.107,404.319c-0.071,0.02-0.132,0.037-0.192,0.054
				c0.216-0.778,0.672-2.052,1.296-2.368c0.139-0.08,0.304-0.098,0.457-0.05l0.091,0.035c0.262,0.114,0.292,0.268,0.275,0.383
				C243.95,402.944,242.953,403.877,242.107,404.319z M242.129,404.757c1.128-0.315,2.689-0.588,3.159-0.218
				c0.1,0.079,0.15,0.204,0.133,0.33c0.006,0.257-0.123,0.498-0.34,0.635C244.582,405.763,243.499,405.485,242.129,404.757z"/>
		</g>
		<polygon style="fill:#EBB376;" points="236.805,387.579 231.813,403.566 240.291,404.38 244.828,389.814 		"/>
		<polygon style="opacity:0.2;enable-background:new    ;" points="236.803,387.579 234.324,395.496 242.687,396.687 
			244.83,389.814 		"/>
		<path style="fill:#263238;" d="M241.143,403.53l-9.142-2.764c-0.314-0.111-0.659,0.054-0.77,0.369
			c-0.001,0.003-0.002,0.006-0.003,0.009l-2.635,7.106c-0.238,0.788,0.202,1.622,0.987,1.87c3.206,0.913,4.782,1.189,8.814,2.373
			c2.471,0.74,7.285,2.436,10.822,2.917c3.537,0.48,3.917-3.03,2.462-3.544c-3.447-1.238-7.524-4.945-9.275-7.442
			C242.094,403.994,241.651,403.68,241.143,403.53z"/>
		<path style="fill:#407BFF;" d="M185.622,302.441c1.171,18.966,4.049,29.365,21.12,31.829c17.072,2.465,43.735,0,43.735,0
			l-16.325,58.408l16.313,5.469c0,0,27.263-70.558,23.646-78.217c-3.617-7.66-55.024-12.738-55.024-12.738l-4.671-9.688
			L185.622,302.441z"/>
		<path style="opacity:0.6;fill:#FFFFFF;enable-background:new    ;" d="M262.141,366.245c-5.89,16.91-11.68,31.9-11.68,31.9
			l-16.31-5.47l16.33-58.4c0,0-17.88,1.65-33.72,0.89c-3.51-0.16-6.93-0.44-10.02-0.89c-17.07-2.47-19.95-12.87-21.12-31.83
			l28.8-4.94l4.67,9.69c0,0,51.4,5.08,55.02,12.73C276.061,324.055,269.041,346.465,262.141,366.245z"/>
		<path style="opacity:0.2;enable-background:new    ;" d="M262.141,366.245c-5.89,16.91-11.68,31.9-11.68,31.9l-16.31-5.47
			l16.33-58.4c0,0-17.88,1.65-33.72,0.89l0.75-25.63c0,0,31.9-0.16,43.88,6.86C264.321,318.115,263.521,342.895,262.141,366.245z"/>
		<path style="fill:#407BFF;" d="M170.622,302.441c1.171,18.966,4.049,29.365,21.12,31.829c17.072,2.465,43.735,0,43.735,0
			l3.677,62.408l16.313-0.531c0,0,7.262-70.558,3.645-78.217c-3.617-7.66-50.023-8.738-50.023-8.738l-4.671-11.688L170.622,302.441z
			"/>
		<path style="opacity:0.6;fill:#FFFFFF;enable-background:new    ;" d="M170.622,302.441c1.171,18.966,4.049,29.365,21.12,31.829
			c17.072,2.465,43.735,0,43.735,0l3.677,62.408l16.313-0.531c0,0,7.262-70.558,3.645-78.217c-3.617-7.66-50.023-8.738-50.023-8.738
			l-4.671-11.688L170.622,302.441z"/>
		<g>
			<path style="fill:#407BFF;" d="M251.969,407.036c0.016,0.018,0.018,0.045,0.039,0.058c0.024,0.006,0.049,0,0.072-0.009
				c0.73,0.196,1.479,0.314,2.234,0.349c0.565,0.078,1.138-0.059,1.607-0.383c0.294-0.284,0.4-0.713,0.269-1.101
				c-0.04-0.255-0.206-0.473-0.443-0.574c-0.556-0.228-1.508,0.124-2.323,0.527c0.497-0.672,0.885-1.457,0.789-1.98
				c-0.066-0.343-0.34-0.602-0.689-0.62c-0.308-0.044-0.584,0.04-0.817,0.247c-0.859,0.804-0.659,3.207-0.657,3.337
				c0,0.001,0.146-0.036,0.146-0.035c0,0.001,0.001,0.001,0.001,0.002c0,0.001-0.146,0.045-0.146,0.046
				c0.001,0.009-0.135,0.05-0.132,0.059C251.927,406.988,251.943,407.015,251.969,407.036z M252.466,406.421
				c-0.063,0.038-0.117,0.071-0.17,0.104c0-0.807,0.097-2.157,0.613-2.629c0.112-0.114,0.267-0.176,0.427-0.171l0.097,0.009
				c0.282,0.039,0.354,0.18,0.368,0.295C253.872,404.602,253.162,405.768,252.466,406.421z M252.605,406.837
				c1.002-0.606,2.432-1.288,2.984-1.058c0.117,0.049,0.2,0.156,0.217,0.282c0.075,0.246,0.015,0.513-0.157,0.703
				C255.238,407.147,254.12,407.17,252.605,406.837z"/>
		</g>
		<polygon style="fill:#EBB376;" points="242.867,391.717 242.348,408.458 250.732,406.967 251.195,391.717 		"/>
		<polygon style="opacity:0.2;enable-background:new    ;" points="242.865,391.717 242.601,400.01 250.977,398.913 
			251.197,391.717 		"/>
		<path style="fill:#263238;" d="M251.326,405.919l-9.549-0.21c-0.333-0.022-0.62,0.229-0.643,0.562c0,0.003,0,0.007-0.001,0.01
			l-0.632,7.552c-0.018,0.823,0.629,1.508,1.452,1.536c3.333,0.019,4.925-0.138,9.128-0.079c2.579,0.05,7.672,0.392,11.208-0.094
			c3.536-0.487,2.96-3.969,1.42-4.075c-3.652-0.267-8.575-2.745-10.932-4.68C252.366,406.111,251.855,405.927,251.326,405.919z"/>
		<polygon style="fill:#407BFF;" points="238.15,396.705 255.743,397.152 256.943,389.577 237.629,389.459 		"/>
		<polygon style="opacity:0.2;fill:#FFFFFF;" points="238.15,396.705 255.743,397.152 256.943,389.577 237.629,389.459 		"/>
		<path style="fill:#407BFF;" d="M227.245,246.58c0,0-4.52,11.93-7.75,28.13c-0.86,4.3-1.63,8.9-2.19,13.65
			c-0.55,4.59-0.91,9.33-0.99,14.09h-45.69c0,0,0-26.09,7.75-46.62c1.46-3.87,3.2-7.54,5.27-10.8c0.41-0.66,0.84-1.31,1.28-1.93
			c1.22-1.73,3.02-2.94,5.08-3.4c3.55-0.79,9.72-1.81,15.94-1.19C215.495,239.47,227.245,246.58,227.245,246.58z"/>
		<path style="opacity:0.2;fill:#FFFFFF;" d="M251.326,405.919l-9.549-0.21c-0.333-0.022-0.62,0.229-0.643,0.562
			c0,0.003,0,0.007-0.001,0.01l-0.632,7.552c-0.018,0.823,0.629,1.508,1.452,1.536c3.333,0.019,4.925-0.138,9.128-0.079
			c2.579,0.05,7.672,0.392,11.208-0.094c3.536-0.487,2.96-3.969,1.42-4.075c-3.652-0.267-8.575-2.745-10.932-4.68
			C252.366,406.111,251.855,405.927,251.326,405.919z"/>
		<g>
			<path style="fill:#263238;" d="M271.888,288.296l-9.125-14.523c-0.183-0.291-0.095-0.675,0.196-0.858l0.216-0.136
				c0.291-0.183,0.676-0.095,0.858,0.196l9.125,14.523l0.253,1.699L271.888,288.296z"/>
		</g>
		<path style="opacity:0.2;enable-background:new    ;" d="M219.495,274.71c-0.86,4.3-1.63,8.9-2.19,13.65
			c-9.41,2.56-30.18,7.23-36.23,0.49c-7.9-8.81,0-33.72,0-33.72l13.53,2.92c0,0-1.6,15.03-0.06,16.05
			C195.895,275,215.105,274.77,219.495,274.71z"/>
		<g>
			<path style="fill:#EBB376;" d="M216.34,276.594l6.541-3.912l0.978,9.595c0,0-6.298,2.084-7.755-1.16L216.34,276.594z"/>
			<polygon style="fill:#EBB376;" points="229.082,273.452 229.522,281.421 223.86,282.277 222.882,272.682 			"/>
		</g>
		<path style="fill:#407BFF;" d="M217.498,275.351c-5.677,0.856-11.496,1.723-17.105,2.237c-2.942,0.289-5.923,0.479-8.432,0.32
			c-0.003-0.003-0.004-0.005-0.007-0.008c-0.015-0.659-0.005-1.406,0.036-2.166c0.064-1.267,0.192-2.608,0.351-3.964
			c0.339-2.717,0.736-5.516,1.234-8.313c1.004-5.575,2.201-11.306,3.539-16.691l-8-2.039c-3.1-0.79-6.221,1.175-6.877,4.307
			c-0.858,4.096-1.541,8.159-2.12,12.323c-0.409,3.039-0.794,6.099-0.971,9.267c-0.093,1.587-0.156,3.195-0.143,4.882
			c0.024,1.702,0.073,3.417,0.44,5.541c0.223,1.09,0.418,2.247,1.306,4.005c0.235,0.442,0.533,0.934,0.961,1.469
			c0.235,0.283,0.436,0.526,0.759,0.827c0.151,0.142,0.306,0.28,0.464,0.413c0.152,0.125,0.268,0.205,0.406,0.306
			c1.085,0.762,1.965,1.087,2.721,1.338c1.468,0.44,2.575,0.556,3.592,0.618c1.015,0.054,1.931,0.038,2.813-0.004
			c3.488-0.192,6.547-0.73,9.602-1.322c6.069-1.279,11.817-2.886,17.605-4.871L217.498,275.351z"/>
		<g>
			<path style="fill:#407BFF;" d="M197.184,279.162c-2.053,2.982-6.766,9.702-9.391,10.877c0,0,0.822,0.943,2.526,0.912
				c1.704-0.031,22.337-3.295,24.778-3.899c2.441-0.604-0.886-19.25-1.609-20.604c-0.723-1.353-4.576-1.454-5.945-0.837
				C205.135,266.696,200.301,274.635,197.184,279.162z"/>
			<path style="opacity:0.7;fill:#FFFFFF;" d="M197.184,279.162c-2.053,2.982-6.766,9.702-9.391,10.877c0,0,0.822,0.943,2.526,0.912
				c1.704-0.031,22.337-3.295,24.778-3.899c2.441-0.604-0.886-19.25-1.609-20.604c-0.723-1.353-4.576-1.454-5.945-0.837
				C205.135,266.696,200.301,274.635,197.184,279.162z"/>
		</g>
		<path style="fill:#407BFF;" d="M197.218,239.574c0,0,4.149-3.869,6.191-4.041c2.043-0.172,9.319,4.424,10.851,5.318
			c1.532,0.894,1.729,8.808,1.729,8.808l-2.138-3.765l-3.232,4.085l-3.475-1.851l-2.098,3.638
			C205.045,251.766,197.792,245.638,197.218,239.574z"/>
		<path style="opacity:0.7;fill:#FFFFFF;" d="M197.218,239.574c0,0,4.149-3.869,6.191-4.041c2.043-0.172,9.319,4.424,10.851,5.318
			c1.532,0.894,1.729,8.808,1.729,8.808l-2.138-3.765l-3.232,4.085l-3.475-1.851l-2.098,3.638
			C205.045,251.766,197.792,245.638,197.218,239.574z"/>
		<g>
			<path style="fill:#EBB376;" d="M202.728,241.362c2.34,3.489,7.895,6.337,7.895,6.337l1.721-3.457
				c-0.517-2.576-0.374-4.044,1.506-6.211l-5.219-12.522c-1.191,4.208-3.586,9.417-7.033,12.261
				C201.6,237.77,201.158,239.021,202.728,241.362z"/>
			<path style="opacity:0.2;enable-background:new    ;" d="M210.757,230.615l3.086,7.413c-0.672,0.755-1.279,1.567-1.813,2.425
				c-1.905-1.337-3.577-5.027-2.706-7.286C209.64,232.234,210.126,231.369,210.757,230.615z"/>
		</g>
		<g>
			<path style="fill:#263238;" d="M229.64,218.382c0.272,2.894-1.391,8.364-4.79,5.741c-1.7-1.312-1.151-10.479-1.151-10.479
				S229.406,215.895,229.64,218.382z"/>
			<path style="fill:#EBB376;" d="M206.528,217.229c0,0,0.745-7.738,6.785-9.361c5.914-1.589,11.552,1.46,13.623,4.034
				c2.476,3.078,2.335,8.516,2.026,11.159C228.653,225.705,209.829,224.808,206.528,217.229z"/>
			<path style="fill:#EBB376;" d="M209.317,217.856c-1.911,6.879-3.382,10.812-1.155,15.415c3.349,6.924,12.775,6.632,16.715,0.443
				c3.546-5.57,6.076-15.884,0.372-20.783C219.629,208.105,211.228,210.976,209.317,217.856z"/>
			<path style="fill:#263238;" d="M208.905,209.71c2.066-0.502,5.545,0.047,6.712,3.842c0.698,2.271-2.698,7.542-6.653,9.426
				C202.673,222.969,204.906,210.682,208.905,209.71z"/>
			<path style="fill:#EBB376;" d="M204.778,222.574c-0.06,1.92,0.778,3.683,1.886,4.808c1.666,1.692,3.698,0.488,4.24-1.701
				c0.488-1.97,0.209-5.223-1.946-6.096C206.835,218.726,204.847,220.378,204.778,222.574z"/>
			<path style="fill:#263238;" d="M218.94,223.173c-0.189,0.549-0.051,1.092,0.31,1.212c0.361,0.121,0.806-0.227,0.996-0.775
				c0.189-0.549,0.051-1.091-0.31-1.212C219.576,222.277,219.13,222.625,218.94,223.173z"/>
			<path style="fill:#263238;" d="M225.174,225.257c-0.189,0.549-0.051,1.091,0.31,1.212c0.361,0.12,0.806-0.227,0.996-0.776
				c0.189-0.549,0.051-1.091-0.31-1.212C225.809,224.361,225.364,224.708,225.174,225.257z"/>
			<path style="fill:#D58745;" d="M223.098,224.867c0,0,0.233,3.478,1.115,5.423c-1.259,0.535-2.774-0.435-2.774-0.435
				L223.098,224.867z"/>
			<path style="fill:#263238;" d="M217.71,220.527c0.107,0.053,0.239,0.048,0.345-0.024c1.268-0.855,2.435-0.387,2.447-0.383
				c0.174,0.072,0.375-0.01,0.449-0.183c0.074-0.173-0.009-0.372-0.182-0.444c-0.061-0.026-1.524-0.612-3.096,0.449
				c-0.157,0.106-0.199,0.318-0.093,0.473C217.614,220.465,217.659,220.503,217.71,220.527z"/>
			<path style="fill:#263238;" d="M228.597,224.021c0.058,0.029,0.125,0.041,0.195,0.032c0.188-0.024,0.322-0.195,0.299-0.381
				c-0.229-1.869-1.641-2.554-1.701-2.592c-0.17-0.081-0.375-0.01-0.458,0.159c-0.083,0.169-0.014,0.37,0.154,0.453
				c0.06,0.026,1.141,0.568,1.325,2.068C228.425,223.876,228.498,223.972,228.597,224.021z"/>
			<path style="fill:#263238;" d="M218.988,229.915l-0.299,0.783c0,0,2.199,0.815,2.647,1.365c0.448,0.55-1.945,3.63-2.48,3.628
				c-0.535-0.002-2.593-1.409-1.33-3.038l-1.182-0.712c0,0-1.773,1.65-2.567,1.406c-0.795-0.245-2.934-0.919-2.078-2.894
				c0.856-1.975,3.117-2.325,3.708-2.273c0.591,0.053,2.73,2.151,2.73,2.151l0.661-0.555c-0.308-0.562-1.895-3.32-3.537-3.684
				c-1.83-0.406-6.72,3.873-7.026,6.196c-0.306,2.323,1.039,5.807,6.418,6.846c5.379,1.039,8.34-5.685,8.174-7.029
				C222.678,230.904,219.645,230.08,218.988,229.915z"/>
			<path style="fill:#263238;" d="M219.249,231.462c0,0-3.13-1.773-4.322-1.834c-1.192-0.061-1.497,1.253,3.301,2.567
				C218.228,232.195,218.467,231.4,219.249,231.462z"/>
			<g style="opacity:0.2;enable-background:new    ;">
				<path d="M220,224.056c-0.126,0.405-0.367,0.766-0.673,1.076c-0.307,0.309-0.723,0.535-1.185,0.611
					c-0.461,0.037-0.944-0.073-1.298-0.338c-0.187-0.118-0.329-0.285-0.489-0.424c-0.124-0.176-0.254-0.342-0.359-0.523
					c0.355,0.231,0.675,0.475,1.029,0.626c0.344,0.17,0.708,0.241,1.056,0.185c0.355-0.023,0.691-0.202,1.009-0.418
					C219.41,224.63,219.708,224.355,220,224.056z"/>
			</g>
			<g style="opacity:0.2;enable-background:new    ;">
				<path d="M224.494,225.475c0.257,0.567,0.4,1.13,0.658,1.627c0.223,0.517,0.52,0.931,1.138,1.077
					c-0.289,0.13-0.664,0.079-0.948-0.115c-0.288-0.19-0.475-0.479-0.622-0.759C224.48,226.715,224.36,226.094,224.494,225.475z"/>
			</g>
			<g style="opacity:0.2;enable-background:new    ;">
				<path d="M217.999,215.246c0.867-0.219,1.762-0.304,2.657-0.33c0.896-0.025,1.794,0.058,2.685,0.184
					c0.885,0.166,1.76,0.409,2.59,0.761c0.828,0.36,1.596,0.853,2.257,1.451c-0.779-0.437-1.561-0.829-2.391-1.107
					c-0.83-0.27-1.67-0.507-2.536-0.632c-0.859-0.161-1.733-0.235-2.61-0.289C219.772,215.232,218.89,215.223,217.999,215.246z"/>
			</g>
			<g style="opacity:0.2;enable-background:new    ;">
				<path d="M217.828,212.666c1.651-0.373,3.376-0.297,5.044-0.004c0.831,0.172,1.652,0.408,2.433,0.742
					c0.788,0.318,1.516,0.77,2.184,1.28c-0.772-0.34-1.52-0.697-2.314-0.935c-0.785-0.254-1.578-0.485-2.394-0.617
					c-0.806-0.176-1.628-0.272-2.454-0.351C219.501,212.706,218.669,212.671,217.828,212.666z"/>
			</g>
			<g style="opacity:0.2;enable-background:new    ;">
				<path d="M221.988,217.805c0.814-0.162,1.633-0.06,2.434,0.09c0.787,0.202,1.581,0.476,2.22,1.006
					c-0.406-0.081-0.785-0.192-1.173-0.277c-0.386-0.087-0.763-0.197-1.153-0.262C223.551,218.162,222.776,218.038,221.988,217.805z
					"/>
			</g>
		</g>
		<g style="opacity:0.2;enable-background:new    ;">
			<path d="M190.643,290.488c0.498-0.259,0.82-0.749,1.178-1.167c0.345-0.438,0.674-0.889,0.998-1.344
				c0.646-0.911,1.269-1.838,1.884-2.77l3.677-5.605c2.455-3.737,4.854-7.506,7.553-11.101c0.351-0.442,0.704-0.88,1.116-1.291
				c0.105-0.102,0.215-0.203,0.34-0.298c0.123-0.101,0.323-0.183,0.441-0.215c0.274-0.095,0.554-0.172,0.838-0.227
				c1.137-0.22,2.317-0.203,3.44,0.208c0.07,0.027,0.143,0.064,0.216,0.103c0.19,0.156,0.155,0.218,0.201,0.296
				c0.053,0.149,0.088,0.287,0.122,0.427c0.067,0.278,0.123,0.555,0.175,0.831l0.284,1.659c0.178,1.106,0.327,2.214,0.472,3.323
				l0.816,6.658l0.348,3.338c0.053,1.125-0.115,2.258-0.51,3.304c0.356-1.059,0.479-2.191,0.385-3.294l-0.466-3.317l-0.95-6.636
				l-0.52-3.308l-0.292-1.644c-0.054-0.272-0.11-0.543-0.176-0.808c-0.033-0.131-0.069-0.264-0.11-0.378
				c-0.005-0.049-0.082-0.133-0.005-0.061c-0.051-0.026-0.102-0.053-0.163-0.075c-0.981-0.354-2.126-0.377-3.171-0.16
				c-0.264,0.053-0.524,0.126-0.777,0.216c-0.149,0.049-0.211,0.073-0.308,0.148c-0.096,0.075-0.193,0.163-0.287,0.257
				c-0.377,0.381-0.725,0.816-1.065,1.252c-2.704,3.531-5.108,7.316-7.627,11.005c-1.255,1.85-2.509,3.701-3.796,5.531
				c-0.65,0.91-1.307,1.816-1.987,2.704c-0.341,0.444-0.687,0.884-1.049,1.311C191.494,289.765,191.154,290.246,190.643,290.488z"/>
		</g>
		<path style="fill:#407BFF;" d="M208.26,267.372c0,0,3.176-0.08,3.303,0c0.128,0.08,0.574,0.686-1.372,0.686
			C208.244,268.059,207.67,267.915,208.26,267.372z"/>
		<path style="fill:#263238;" d="M215.989,241.132c1.605,1.248-6.427,23.4-7.487,26.299c-0.056,0.153,0.059,0.312,0.222,0.312h2.248
			c0.16,0,0.303-0.098,0.359-0.248c0.924-2.438,8.32-22.117,7.474-25.207c0,0-0.046-0.385-2.299-1.2
			C216.159,240.963,215.989,241.132,215.989,241.132z"/>
		<g>
			<g>
				<path style="fill:#263238;" d="M230.601,286.803c-0.01,0-0.019-0.001-0.029-0.002c-2.279-0.26-4.435-1.959-4.526-2.031
					c-0.108-0.086-0.126-0.243-0.04-0.351c0.086-0.109,0.244-0.126,0.352-0.04c0.021,0.017,2.137,1.682,4.271,1.926
					c0.137,0.016,0.236,0.14,0.22,0.276C230.834,286.709,230.726,286.803,230.601,286.803z"/>
			</g>
			<g>
				<path style="fill:#263238;" d="M227.927,288.313c-0.003,0-0.006,0-0.01,0c-2.32-0.09-3.593-1.795-3.646-1.867
					c-0.082-0.111-0.057-0.268,0.054-0.349c0.11-0.083,0.267-0.059,0.35,0.054c0.012,0.016,1.189,1.582,3.262,1.662
					c0.138,0.006,0.246,0.122,0.24,0.26C228.172,288.207,228.061,288.313,227.927,288.313z"/>
			</g>
			<g>
				<path style="fill:#263238;" d="M233.289,258.766c-0.114-0.012-0.209-0.102-0.222-0.22c-0.142-1.273-0.694-4.709-1.522-5.331
					c-0.11-0.083-0.133-0.24-0.05-0.35c0.083-0.111,0.24-0.131,0.35-0.05c1.15,0.864,1.664,5.185,1.719,5.674
					c0.015,0.137-0.083,0.261-0.221,0.277C233.325,258.768,233.306,258.768,233.289,258.766z"/>
			</g>
			<g>
				<path style="fill:#263238;" d="M234.903,256.885c-0.11-0.012-0.203-0.096-0.221-0.21c-0.146-0.945-0.725-2.586-0.731-2.603
					c-0.046-0.131,0.022-0.274,0.152-0.32c0.131-0.045,0.273,0.023,0.32,0.152c0.024,0.069,0.6,1.702,0.754,2.694
					c0.021,0.137-0.073,0.264-0.209,0.285C234.946,256.887,234.924,256.888,234.903,256.885z"/>
			</g>
			<g>
				<path style="fill:#263238;" d="M265.75,272.932c-0.075,0-0.149-0.034-0.199-0.099c-1.251-1.637-1.724-2.066-2.91-2.2
					c-0.137-0.015-0.236-0.139-0.221-0.276c0.015-0.137,0.138-0.234,0.276-0.22c1.422,0.159,2.021,0.783,3.252,2.393
					c0.084,0.109,0.063,0.267-0.047,0.35C265.856,272.915,265.803,272.932,265.75,272.932z"/>
			</g>
			<g>
				<path style="fill:#263238;" d="M265.75,270.635c-0.077,0-0.153-0.035-0.202-0.103c-0.959-1.31-2.157-1.474-2.169-1.476
					c-0.136-0.017-0.234-0.142-0.217-0.278c0.016-0.137,0.135-0.228,0.277-0.218c0.057,0.007,1.419,0.182,2.513,1.677
					c0.082,0.111,0.058,0.268-0.054,0.35C265.853,270.619,265.801,270.635,265.75,270.635z"/>
			</g>
			<g style="opacity:0.7;">
				<g>
					<path style="fill:#FFFFFF;" d="M230.601,286.803c-0.01,0-0.019-0.001-0.029-0.002c-2.279-0.26-4.435-1.959-4.526-2.031
						c-0.108-0.086-0.126-0.243-0.04-0.351c0.086-0.109,0.244-0.126,0.352-0.04c0.021,0.017,2.137,1.682,4.271,1.926
						c0.137,0.016,0.236,0.14,0.22,0.276C230.834,286.709,230.726,286.803,230.601,286.803z"/>
				</g>
				<g>
					<path style="fill:#FFFFFF;" d="M227.927,288.313c-0.003,0-0.006,0-0.01,0c-2.32-0.09-3.593-1.795-3.646-1.867
						c-0.082-0.111-0.057-0.268,0.054-0.349c0.11-0.083,0.267-0.059,0.35,0.054c0.012,0.016,1.189,1.582,3.262,1.662
						c0.138,0.006,0.246,0.122,0.24,0.26C228.172,288.207,228.061,288.313,227.927,288.313z"/>
				</g>
				<g>
					<path style="fill:#FFFFFF;" d="M233.289,258.766c-0.114-0.012-0.209-0.102-0.222-0.22c-0.142-1.273-0.694-4.709-1.522-5.331
						c-0.11-0.083-0.133-0.24-0.05-0.35c0.083-0.111,0.24-0.131,0.35-0.05c1.15,0.864,1.664,5.185,1.719,5.674
						c0.015,0.137-0.083,0.261-0.221,0.277C233.325,258.768,233.306,258.768,233.289,258.766z"/>
				</g>
				<g>
					<path style="fill:#FFFFFF;" d="M234.903,256.885c-0.11-0.012-0.203-0.096-0.221-0.21c-0.146-0.945-0.725-2.586-0.731-2.603
						c-0.046-0.131,0.022-0.274,0.152-0.32c0.131-0.045,0.273,0.023,0.32,0.152c0.024,0.069,0.6,1.702,0.754,2.694
						c0.021,0.137-0.073,0.264-0.209,0.285C234.946,256.887,234.924,256.888,234.903,256.885z"/>
				</g>
				<g>
					<path style="fill:#FFFFFF;" d="M265.75,272.932c-0.075,0-0.149-0.034-0.199-0.099c-1.251-1.637-1.724-2.066-2.91-2.2
						c-0.137-0.015-0.236-0.139-0.221-0.276c0.015-0.137,0.138-0.234,0.276-0.22c1.422,0.159,2.021,0.783,3.252,2.393
						c0.084,0.109,0.063,0.267-0.047,0.35C265.856,272.915,265.803,272.932,265.75,272.932z"/>
				</g>
				<g>
					<path style="fill:#FFFFFF;" d="M265.75,270.635c-0.077,0-0.153-0.035-0.202-0.103c-0.959-1.31-2.157-1.474-2.169-1.476
						c-0.136-0.017-0.234-0.142-0.217-0.278c0.016-0.137,0.135-0.228,0.277-0.218c0.057,0.007,1.419,0.182,2.513,1.677
						c0.082,0.111,0.058,0.268-0.054,0.35C265.853,270.619,265.801,270.635,265.75,270.635z"/>
				</g>
			</g>
		</g>
	</g>
</g>
<g id="Table">
	<g>
		<polygon style="fill:#263238;" points="210.089,415.454 204.192,415.454 208.024,297.505 215.454,297.505 		"/>
		<polygon style="fill:#263238;" points="290.636,415.454 284.739,415.454 288.571,297.505 296.001,297.505 		"/>
		<polygon style="opacity:0.4;fill:#FFFFFF;enable-background:new    ;" points="210.089,415.454 204.192,415.454 208.024,297.505 
			215.454,297.505 		"/>
		<polygon style="opacity:0.4;fill:#FFFFFF;enable-background:new    ;" points="290.636,415.454 284.739,415.454 288.571,297.505 
			296.001,297.505 		"/>
		<polygon style="fill:#263238;" points="387.512,415.454 393.409,415.454 389.577,297.505 382.147,297.505 		"/>
		<polygon style="fill:#263238;" points="306.965,415.454 312.862,415.454 309.03,297.505 301.6,297.505 		"/>
		<polygon style="opacity:0.3;fill:#FFFFFF;enable-background:new    ;" points="387.512,415.454 393.409,415.454 389.577,297.505 
			382.147,297.505 		"/>
		<polygon style="opacity:0.3;fill:#FFFFFF;enable-background:new    ;" points="306.965,415.454 312.862,415.454 309.03,297.505 
			301.6,297.505 		"/>
		<path style="fill:#263238;" d="M394.266,302.45H204.334c-0.865,0-1.565-0.701-1.565-1.565v-8.552h193.063v8.552
			C395.832,301.749,395.131,302.45,394.266,302.45z"/>
		<path style="opacity:0.5;fill:#FFFFFF;enable-background:new    ;" d="M395.832,292.33v8.55c0,0.87-0.7,1.57-1.57,1.57h-189.93
			c-0.86,0-1.56-0.7-1.56-1.57v-8.55H395.832z"/>
		<path style="opacity:0.1;enable-background:new    ;" d="M395.832,292.48v8.4c0,0.87-0.7,1.57-1.57,1.57h-95.11v-6.11l-96.38-1.87
			v-2.14L395.832,292.48z"/>
		<path style="fill:#263238;" d="M400.743,294.468H197.564c-1.099,0-1.99-0.891-1.99-1.99l0,0c0-1.099,0.891-1.99,1.99-1.99h203.179
			c1.099,0,1.99,0.891,1.99,1.99l0,0C402.734,293.577,401.843,294.468,400.743,294.468z"/>
		<path style="opacity:0.6;fill:#FFFFFF;enable-background:new    ;" d="M402.732,292.48c0,0.55-0.22,1.05-0.58,1.41
			c-0.36,0.36-0.86,0.58-1.41,0.58h-203.18c-1.1,0-1.99-0.89-1.99-1.99c0-0.55,0.22-1.05,0.58-1.41c0.36-0.36,0.86-0.58,1.41-0.58
			h203.18C401.842,290.49,402.732,291.38,402.732,292.48z"/>
		<path style="opacity:0.2;fill:#FFFFFF;enable-background:new    ;" d="M299.732,292.48c0,0.55-0.23,1.05-0.59,1.41
			c-0.36,0.36-0.86,0.58-1.41,0.58h-100.17c-1.1,0-1.99-0.89-1.99-1.99c0-0.55,0.22-1.05,0.58-1.41c0.36-0.36,0.86-0.58,1.41-0.58
			h100.17C298.832,290.49,299.732,291.38,299.732,292.48z"/>
		<path style="fill:#407BFF;" d="M219.281,290.534c0,0,5.872-1.624,12.34-1.624c6.468,0,8.918,1.148,14.672,1.148
			c5.754,0,10.605-1.548,10.605-1.548h27.319c0,0-6.553,2.023-15.404,2.023C259.961,290.534,219.281,290.534,219.281,290.534z"/>
		<path style="opacity:0.7;fill:#FFFFFF;" d="M219.281,290.534c0,0,5.872-1.624,12.34-1.624c6.468,0,8.918,1.148,14.672,1.148
			c5.754,0,10.605-1.548,10.605-1.548h27.319c0,0-6.553,2.023-15.404,2.023C259.961,290.534,219.281,290.534,219.281,290.534z"/>
		<g>
			<g>
				<g>
					
						<rect x="350.665" y="255.25" transform="matrix(0.9885 -0.151 0.151 0.9885 -36.662 56.3221)" style="fill:#407BFF;" width="3.766" height="28.658"/>
				</g>
				<g style="opacity:0.7;enable-background:new    ;">
					
						<rect x="350.665" y="255.25" transform="matrix(0.9885 -0.151 0.151 0.9885 -36.662 56.3221)" style="fill:#FFFFFF;" width="3.766" height="28.658"/>
				</g>
				<g style="opacity:0.2;">
					<g>
						
							<rect x="348.642" y="256.288" transform="matrix(0.9885 -0.1511 0.1511 0.9885 -34.7326 55.694)" width="1.074" height="0.297"/>
					</g>
					<g>
						
							<rect x="348.772" y="257.14" transform="matrix(0.9885 -0.1514 0.1514 0.9885 -34.9268 55.8512)" width="1.074" height="0.297"/>
					</g>
					<g>
						
							<rect x="348.902" y="257.991" transform="matrix(0.9885 -0.1511 0.1511 0.9885 -34.9981 55.774)" width="1.074" height="0.298"/>
					</g>
					<g>
						
							<rect x="349.032" y="258.843" transform="matrix(0.9885 -0.1513 0.1513 0.9885 -35.1714 55.8906)" width="1.074" height="0.297"/>
					</g>
					<g>
						
							<rect x="349.162" y="259.695" transform="matrix(0.9886 -0.1507 0.1507 0.9886 -35.1734 55.6836)" width="1.074" height="0.297"/>
					</g>
					<g>
						
							<rect x="349.292" y="260.546" transform="matrix(0.9886 -0.1508 0.1508 0.9886 -35.3119 55.7347)" width="1.074" height="0.298"/>
					</g>
					<g>
						
							<rect x="349.422" y="261.399" transform="matrix(0.9885 -0.151 0.151 0.9885 -35.4853 55.851)" width="1.074" height="0.297"/>
					</g>
					<g>
						<rect x="349.552" y="262.25" transform="matrix(0.9885 -0.1511 0.1511 0.9885 -35.6228 55.9)" width="1.074" height="0.297"/>
					</g>
					<g>
						
							<rect x="349.683" y="263.101" transform="matrix(0.9886 -0.1508 0.1508 0.9886 -35.6927 55.8228)" width="1.074" height="0.298"/>
					</g>
					<g>
						
							<rect x="349.813" y="263.954" transform="matrix(0.9885 -0.1513 0.1513 0.9885 -35.9358 56.0676)" width="1.074" height="0.297"/>
					</g>
					<g>
						
							<rect x="349.943" y="264.805" transform="matrix(0.9886 -0.1507 0.1507 0.9886 -35.9348 55.8597)" width="1.074" height="0.297"/>
					</g>
					<g>
						
							<rect x="350.073" y="265.656" transform="matrix(0.9885 -0.1511 0.1511 0.9885 -36.1325 56.0194)" width="1.074" height="0.298"/>
					</g>
					<g>
						
							<rect x="350.203" y="266.509" transform="matrix(0.9886 -0.1507 0.1507 0.9886 -36.1887 55.9184)" width="1.074" height="0.297"/>
					</g>
					<g>
						
							<rect x="350.333" y="267.36" transform="matrix(0.9885 -0.1511 0.1511 0.9885 -36.3859 56.0765)" width="1.074" height="0.297"/>
					</g>
					<g>
						
							<rect x="350.463" y="268.212" transform="matrix(0.9886 -0.1508 0.1508 0.9886 -36.4544 55.9989)" width="1.074" height="0.298"/>
					</g>
					<g>
						
							<rect x="350.593" y="269.064" transform="matrix(0.9885 -0.151 0.151 0.9885 -36.6295 56.1157)" width="1.074" height="0.297"/>
					</g>
					<g>
						
							<rect x="350.723" y="269.915" transform="matrix(0.9885 -0.1514 0.1514 0.9885 -36.8385 56.2939)" width="1.074" height="0.297"/>
					</g>
					<g>
						
							<rect x="350.853" y="270.767" transform="matrix(0.9886 -0.1508 0.1508 0.9886 -36.8353 56.087)" width="1.074" height="0.298"/>
					</g>
					<g>
						
							<rect x="350.984" y="271.619" transform="matrix(0.9885 -0.151 0.151 0.9885 -37.0109 56.2039)" width="1.074" height="0.297"/>
					</g>
					<g>
						
							<rect x="351.114" y="272.471" transform="matrix(0.9885 -0.1511 0.1511 0.9885 -37.1489 56.2531)" width="1.074" height="0.297"/>
					</g>
					<g>
						
							<rect x="351.244" y="273.322" transform="matrix(0.9886 -0.1508 0.1508 0.9886 -37.2271 56.1947)" width="1.074" height="0.298"/>
					</g>
					<g>
						
							<rect x="351.374" y="274.174" transform="matrix(0.9885 -0.151 0.151 0.9885 -37.3923 56.2922)" width="1.074" height="0.297"/>
					</g>
					<g>
						
							<rect x="351.504" y="275.026" transform="matrix(0.9885 -0.1513 0.1513 0.9885 -37.5921 56.4511)" width="1.074" height="0.297"/>
					</g>
					<g>
						
							<rect x="351.634" y="275.877" transform="matrix(0.9885 -0.1511 0.1511 0.9885 -37.6698 56.3923)" width="1.074" height="0.298"/>
					</g>
				</g>
			</g>
			<g>
				<g>
					<rect x="356.173" y="259.679" style="fill:#407BFF;" width="1.441" height="19.079"/>
				</g>
				<g>
					<polygon style="fill:#407BFF;" points="357.497,257.516 356.291,257.516 356.173,259.679 357.615,259.679 					"/>
				</g>
				<g style="opacity:0.8;">
					<polygon style="fill:#FFFFFF;" points="357.497,257.516 356.291,257.516 356.173,259.679 357.615,259.679 					"/>
				</g>
				<g style="opacity:0.3;">
					<rect x="356.173" y="259.679" width="1.441" height="19.079"/>
				</g>
			</g>
			<g>
				<g>
					
						<rect x="362.486" y="261.679" transform="matrix(0.9919 0.1267 -0.1267 0.9919 37.2894 -43.8064)" style="fill:#263238;" width="1.267" height="19.291"/>
				</g>
				<g>
					<path style="fill:#263238;" d="M365.607,260.279l-0.37-0.434l0.079-2.577l-0.791-0.097l-0.997,4.465l0.067,0.962l1.257,0.161
						l0.179-0.505l-0.273,3.389l0.161,0.021C365.435,263.579,365.607,260.279,365.607,260.279z"/>
				</g>
				<g style="opacity:0.1;">
					<path style="fill:#FFFFFF;" d="M365.607,260.279l-0.37-0.434l0.079-2.577l-0.791-0.097l-0.997,4.465l0.067,0.962l1.257,0.161
						l0.179-0.505l-0.273,3.389l0.161,0.021C365.435,263.579,365.607,260.279,365.607,260.279z"/>
				</g>
			</g>
			<g>
				<g>
					<polygon style="fill:#263238;" points="362.809,266.291 358.867,266.498 359.012,262.538 362.25,262.368 					"/>
				</g>
				<g>
					<polygon style="fill:#407BFF;" points="362.809,266.291 358.867,266.498 359.783,277.203 363.02,277.033 					"/>
				</g>
			</g>
			<g>
				<polygon style="fill:#263238;" points="364.297,271.736 349.676,271.736 350.85,290.394 363.122,290.394 				"/>
			</g>
			<g>
				<rect x="349.467" y="271.031" style="fill:#263238;" width="15.04" height="1.902"/>
			</g>
			<g style="opacity:0.2;">
				<rect x="349.467" y="271.031" style="fill:#FFFFFF;" width="15.04" height="1.902"/>
			</g>
		</g>
		<g>
			<path style="fill:#407BFF;" d="M381.047,260.432c0,0,3.796-10.411,5.671-11.706c1.874-1.296,4.52-10.33,2.26-14.146
				c0,0-4.997,3.08-6.206,8.769c0,0-0.115-10.398-5.425-12.897c0,0-3.451,7.936-0.937,14.276c0,0-1.718-1.445-4.998-1.379
				c0,0,1.874,4.127,4.685,4.752l2.826,14.558L381.047,260.432z"/>
			<path style="opacity:0.2;" d="M381.047,260.432c0,0,3.796-10.411,5.671-11.706c1.874-1.296,4.52-10.33,2.26-14.146
				c0,0-4.997,3.08-6.206,8.769c0,0-0.115-10.398-5.425-12.897c0,0-3.451,7.936-0.937,14.276c0,0-1.718-1.445-4.998-1.379
				c0,0,1.874,4.127,4.685,4.752l2.826,14.558L381.047,260.432z"/>
			<path style="fill:#407BFF;" d="M381.876,262.658c0,0,0.156-5.499,6.091-7.686c5.935-2.187,7.341-4.159,7.341-4.159
				s-3.602-1.619-6.33,0.723c0,0,4.456-4.372,6.33-12.572c0,0-5.154,2.015-6.716,8.465c0,0,0.625-5.888-2.967-8.465
				c0,0-2.499,4.919-0.781,9.449c0,0-2.11-2.187-4.015-2.499c0,0-1.001,6.026,1.944,8.121c0,0-2.07,6.091-2.107,9.527
				C380.626,266.999,381.876,262.658,381.876,262.658z"/>
			<path style="fill:#407BFF;" d="M379.796,261.167l-0.505-4.923c0,0,1.971-0.552,2.272-2.904c0,0-1.894-0.253-2.904,1.136
				c0,0,2.021-6.552-1.01-10.282c0,0-1.641,2.704-1.894,5.041c0,0,0.548-8.015-4.965-13.317c0,0-1.474,8.895,2.566,13.727
				c0,0-3.03-2.239-6.817-1.102c0,0,1.991,5.212,6.779,5.278c0,0-4.002,0.277-5.39,3.307c0,0,2.272,1.641,5.176,0.884
				c2.904-0.758,5.257,4.648,5.257,4.648L379.796,261.167z"/>
			<polygon style="fill:#407BFF;" points="383.006,264.263 384.361,261.065 374.48,261.065 375.836,264.263 372.431,269.685 
				375.142,290.542 383.7,290.542 386.41,269.685 			"/>
			<polygon style="opacity:0.7;fill:#FFFFFF;" points="383.006,264.263 384.361,261.065 374.48,261.065 375.836,264.263 
				372.431,269.685 375.142,290.542 383.7,290.542 386.41,269.685 			"/>
		</g>
	</g>
</g>
</svg>
